<svg width="31" height="30" viewBox="0 0 31 30" fill="none" xmlns="http://www.w3.org/2000/svg">
<path d="M11.6252 28.4167C12.3385 28.4167 12.9168 27.8384 12.9168 27.125C12.9168 26.4117 12.3385 25.8334 11.6252 25.8334C10.9118 25.8334 10.3335 26.4117 10.3335 27.125C10.3335 27.8384 10.9118 28.4167 11.6252 28.4167Z" fill="#9A9A9A" stroke="#9A9A9A" stroke-width="2" stroke-linecap="round" stroke-linejoin="round"/>
<path d="M25.8332 28.4167C26.5465 28.4167 27.1248 27.8384 27.1248 27.125C27.1248 26.4117 26.5465 25.8334 25.8332 25.8334C25.1198 25.8334 24.5415 26.4117 24.5415 27.125C24.5415 27.8384 25.1198 28.4167 25.8332 28.4167Z" fill="#9A9A9A" stroke="#9A9A9A" stroke-width="2" stroke-linecap="round" stroke-linejoin="round"/>
<path d="M1.2915 1.29163H6.45817L9.91984 18.587C10.038 19.1817 10.3615 19.7159 10.8337 20.0961C11.306 20.4763 11.897 20.6782 12.5032 20.6666H25.0582C25.6644 20.6782 26.2553 20.4763 26.7276 20.0961C27.1999 19.7159 27.5234 19.1817 27.6415 18.587L29.7082 7.74996H7.74984" fill="#9A9A9A"/>
<path d="M1.2915 1.29163H6.45817L9.91984 18.587C10.038 19.1817 10.3615 19.7159 10.8337 20.0961C11.306 20.4763 11.897 20.6782 12.5032 20.6666H25.0582C25.6644 20.6782 26.2553 20.4763 26.7276 20.0961C27.1999 19.7159 27.5234 19.1817 27.6415 18.587L29.7082 7.74996H7.74984" stroke="#9A9A9A" stroke-width="2" stroke-linecap="round" stroke-linejoin="round"/>
</svg>
