<svg width="23" height="27" viewBox="0 0 23 27" fill="none" xmlns="http://www.w3.org/2000/svg">
<path d="M21.8332 25.875V23.125C21.8332 21.6663 21.2888 20.2674 20.3199 19.2359C19.351 18.2045 18.0368 17.625 16.6665 17.625H6.33317C4.96289 17.625 3.64872 18.2045 2.67979 19.2359C1.71085 20.2674 1.1665 21.6663 1.1665 23.125V25.875" fill="#09BBB5"/>
<path d="M21.8332 25.875V23.125C21.8332 21.6663 21.2888 20.2674 20.3199 19.2359C19.3509 18.2045 18.0368 17.625 16.6665 17.625H6.33317C4.96289 17.625 3.64872 18.2045 2.67979 19.2359C1.71085 20.2674 1.1665 21.6663 1.1665 23.125V25.875" stroke="#09BBB5" stroke-width="2" stroke-linecap="round" stroke-linejoin="round"/>
<path d="M11.5002 12.125C14.3536 12.125 16.6668 9.66257 16.6668 6.625C16.6668 3.58743 14.3536 1.125 11.5002 1.125C8.64669 1.125 6.3335 3.58743 6.3335 6.625C6.3335 9.66257 8.64669 12.125 11.5002 12.125Z" fill="#09BBB5" stroke="#09BBB5" stroke-width="2" stroke-linecap="round" stroke-linejoin="round"/>
</svg>
